<svg xmlns="http://www.w3.org/2000/svg" viewBox="0 0 400 500">
  <defs>
    <radialGradient id="bg" cx="50%" cy="40%" r="75%">
      <stop offset="0" stop-color="#fbf6f0"/>
      <stop offset="1" stop-color="#efe4d8"/>
    </radialGradient>
    <radialGradient id="rose" cx="35%" cy="30%" r="70%"><stop offset="0" stop-color="#fff"/><stop offset=".45" stop-color="#f4bfc6"/><stop offset="1" stop-color="#d98d99"/></radialGradient>
    <radialGradient id="gold" cx="35%" cy="30%" r="70%"><stop offset="0" stop-color="#fff6d6"/><stop offset=".45" stop-color="#e6c372"/><stop offset="1" stop-color="#a87e33"/></radialGradient>
    <radialGradient id="violet" cx="35%" cy="30%" r="70%"><stop offset="0" stop-color="#fff"/><stop offset=".45" stop-color="#b9a0e4"/><stop offset="1" stop-color="#7a5cb8"/></radialGradient>
    <filter id="s" x="-20%" y="-20%" width="140%" height="140%"><feDropShadow dx="0" dy="3" stdDeviation="3" flood-color="#6b4b3b" flood-opacity=".22"/></filter>
  </defs>
  <rect width="400" height="500" fill="url(#bg)"/>
  <g filter="url(#s)" transform="translate(200 250)">
    <g id="ring">
      <circle r="17" cx="0" cy="-118" fill="url(#rose)"/>
      <circle r="17" cx="45" cy="-109" fill="url(#gold)"/>
      <circle r="17" cx="83" cy="-83" fill="url(#violet)"/>
      <circle r="17" cx="109" cy="-45" fill="url(#rose)"/>
      <circle r="17" cx="118" cy="0" fill="url(#gold)"/>
      <circle r="17" cx="109" cy="45" fill="url(#violet)"/>
      <circle r="17" cx="83" cy="83" fill="url(#rose)"/>
      <circle r="17" cx="45" cy="109" fill="url(#gold)"/>
      <circle r="17" cx="0" cy="118" fill="url(#violet)"/>
      <circle r="17" cx="-45" cy="109" fill="url(#rose)"/>
      <circle r="17" cx="-83" cy="83" fill="url(#gold)"/>
      <circle r="17" cx="-109" cy="45" fill="url(#violet)"/>
      <circle r="17" cx="-118" cy="0" fill="url(#rose)"/>
      <circle r="17" cx="-109" cy="-45" fill="url(#gold)"/>
      <circle r="17" cx="-83" cy="-83" fill="url(#violet)"/>
      <circle r="17" cx="-45" cy="-109" fill="url(#rose)"/>
    </g>
  </g>
  <text x="200" y="440" text-anchor="middle" font-family="Georgia, serif" font-size="18" letter-spacing="8" fill="#8a6f5c">LUNARA</text>
</svg>
